# xmcd
# 
# Track frame offsets:
#     182
#     18170
#     35280
#     51967
#     67922
#     86142
#     108322
#     123565
#     140040
#     151827
#     177967
#     193902
#     202862
#     224550
# 
# Disc length: 3212
# 
# Revision: 3
# Processed by: cddbd v1.5.2PL0 Copyright (c) Steve Scherf et al.
# Submitted via: fre:ac v1.0.27
# 
DISCID=c60c8a0e
DTITLE=Carole FREDERICKS - Springfield
DYEAR=1996
DGENRE=Blues
TTITLE0=Save My Soul
TTITLE1=Reachin'
TTITLE2=You Had It Comin'
TTITLE3=Shine
TTITLE4=Jesus In Me
TTITLE5=Run Away Love
TTITLE6=No Rain
TTITLE7=Change
TTITLE8=Let Him Be Blues
TTITLE9=Reason To Stay
TTITLE10=Tender Love
TTITLE11=Oh Happy Day
TTITLE12=So I Pray
TTITLE13=Silent Night
EXTD=YEAR: 1996
EXTT0=
EXTT1=
EXTT2=
EXTT3=
EXTT4=
EXTT5=
EXTT6=
EXTT7=
EXTT8=
EXTT9=
EXTT10=
EXTT11=
EXTT12=
EXTT13=
PLAYORDER=
